<?xml version="1.0" standalone="no"?>
<!DOCTYPE svg PUBLIC "-//W3C//DTD SVG 1.1//EN" "http://www.w3.org/Graphics/SVG/1.1/DTD/svg11.dtd" >
<svg xmlns="http://www.w3.org/2000/svg">
<metadata>Generated by IcoMoon</metadata>
<defs>
<font id="svg-icons" horiz-adv-x="1024">
<font-face units-per-em="1024" ascent="960" descent="-64" />
<missing-glyph horiz-adv-x="1024" />
<glyph unicode="&#x20;" horiz-adv-x="512" d="" />
<glyph unicode="&#xe900;" glyph-name="error" d="M562.479 376.188v307.681h-100.958v-307.681h100.958zM562.479 169.465v103.362h-100.958v-103.362h100.958zM512 938.667q211.531 0 361.765-150.235t150.235-361.765-150.235-361.765-361.765-150.235-361.765 150.235-150.235 361.765 150.235 361.765 361.765 150.235z" />
<glyph unicode="&#xe901;" glyph-name="warning" d="M557.753 310.105v187.37h-91.506v-187.37h91.506zM557.753 124.913v93.685h-91.506v-93.685h91.506zM0-14.525l512 882.383 512-882.383h-1024z" />
<glyph unicode="&#xe902;" glyph-name="loop" d="M512 147.791v139.438l185.191-185.191-185.191-187.37v139.438q-152.511 0-262.536 110.026t-110.026 262.536q0 108.936 58.826 198.264l67.54-67.54q-32.681-58.826-32.681-130.723 0-115.472 81.702-197.174t197.174-81.702zM512 799.23q152.511 0 262.536-110.026t110.026-262.536q0-108.936-58.826-198.264l-67.54 67.54q32.681 58.826 32.681 130.723 0 115.472-81.702 197.174t-197.174 81.702v-139.438l-185.191 185.191 185.191 187.37v-139.438z" />
<glyph unicode="&#xe903;" glyph-name="volume_off" d="M512 882.667v-240l-120 120zM72 938.667l952-952-72-72-117.333 117.333q-88-74.667-208-104v117.333q66.667 18.667 128 66.667l-242.667 242.667v-384l-285.333 285.333h-226.667v341.333h269.333l-269.333 269.333zM909.333 426.667q0 136-78.667 240t-204 141.333v117.333q173.333-37.333 285.333-177.333t112-321.333q0-125.333-58.667-237.333l-85.333 88q29.333 72 29.333 149.333zM768 426.667q0-24-2.667-34.667l-138.667 138.667v125.333q58.667-29.333 100-96t41.333-133.333z" />
<glyph unicode="&#xe904;" glyph-name="volume_up" d="M626.667 925.333q173.333-37.333 285.333-177.333t112-321.333-112-321.333-285.333-177.333v117.333q125.333 37.333 204 141.333t78.667 240-78.667 240-204 141.333v117.333zM768 426.666q0-160-141.333-229.333v458.667q58.667-29.333 100-96t41.333-133.333zM0 597.333h226.667l285.333 285.333v-912l-285.333 285.333h-226.667v341.333z" />
<glyph unicode="&#xe905;" glyph-name="email" d="M923.043 630.987v103.362l-411.042-257.202-411.042 257.202v-103.362l411.042-254.798zM923.043 837.71q40.864 0 70.911-31.249t30.047-72.113v-615.362q0-40.864-30.047-72.113t-70.911-31.249h-822.085q-40.864 0-70.911 31.249t-30.047 72.113v615.362q0 40.864 30.047 72.113t70.911 31.249h822.085z" />
<glyph unicode="&#xe906;" glyph-name="add_circle" d="M769.202 376.188v100.958h-206.723v206.723h-100.958v-206.723h-206.723v-100.958h206.723v-206.723h100.958v206.723h206.723zM512 938.667q211.531 0 361.765-150.235t150.235-361.765-150.235-361.765-361.765-150.235-361.765 150.235-150.235 361.765 150.235 361.765 361.765 150.235z" />
<glyph unicode="&#xe907;" glyph-name="remove_circle" d="M769.202 376.188v100.958h-514.404v-100.958h514.404zM512 938.667q211.531 0 361.765-150.235t150.235-361.765-150.235-361.765-361.765-150.235-361.765 150.235-150.235 361.765 150.235 361.765 361.765 150.235z" />
<glyph unicode="&#xe908;" glyph-name="reply" d="M397.333 626.667q277.333-40 428-212t198.667-414.667q-205.333 290.667-626.667 290.667v-232l-397.333 397.333 397.333 397.333v-226.667z" />
<glyph unicode="&#xe909;" glyph-name="send" d="M0-12.19v340.571l731.429 98.286-731.429 98.286v340.571l1024-438.857z" />
<glyph unicode="&#xe90a;" glyph-name="insert_photo" d="M312 341.333l-197.333-256h794.667l-256 341.333-197.333-256zM1024 29.333q0-45.333-34.667-80t-80-34.667h-794.667q-45.333 0-80 34.667t-34.667 80v794.667q0 45.333 34.667 80t80 34.667h794.667q45.333 0 80-34.667t34.667-80v-794.667z" />
<glyph unicode="&#xe90b;" glyph-name="attachment" d="M0 425.464q0 117.784 81.728 200.714t199.512 82.93h538.441q84.131 0 144.225-61.296t60.094-145.427-60.094-144.225-144.225-60.094h-435.080q-52.883 0-91.343 37.258t-38.46 90.141 38.46 91.343 91.343 38.46h384.601v-103.362h-389.408q-21.634 0-21.634-25.239t21.634-25.239h439.887q40.864 0 72.113 30.047t31.249 70.911-31.249 72.113-72.113 31.249h-538.441q-74.516 0-127.399-52.883t-52.883-127.399 52.883-126.197 127.399-51.681h487.962v-103.362h-487.962q-117.784 0-199.512 81.728t-81.728 199.512z" />
<glyph unicode="&#xe90c;" glyph-name="camera_alt" d="M512 118.987q105.765 0 181.484 75.718t75.718 181.484-75.718 181.484-181.484 75.718-181.484-75.718-75.718-181.484 75.718-181.484 181.484-75.718zM358.16 888.189h307.681l93.746-100.958h163.455q40.864 0 70.911-31.249t30.047-72.113v-615.362q0-40.864-30.047-72.113t-70.911-31.249h-822.085q-40.864 0-70.911 31.249t-30.047 72.113v615.362q0 40.864 30.047 72.113t70.911 31.249h163.455zM348.545 376.189q0 67.305 48.075 115.38t115.38 48.075 115.38-48.075 48.075-115.38-48.075-115.38-115.38-48.075-115.38 48.075-48.075 115.38z" />
<glyph unicode="&#xe90d;" glyph-name="filter_vintage" d="M512 244.574q74.979 0 128.536 53.556t53.556 128.536-53.556 128.536-128.536 53.556-128.536-53.556-53.556-128.536 53.556-128.536 128.536-53.556zM644.82 658.030q74.979 59.983 173.523 59.983 72.837 0 137.105-36.418 0-66.41-40.703-134.962t-96.402-100.686q-4.285-2.142-11.782-6.427t-13.925-7.498-12.854-5.356q19.28-8.569 38.561-19.28 55.699-32.134 96.402-100.686t40.703-134.962q-64.268-36.418-137.105-36.418-98.544 0-173.523 59.983 4.285-29.992 4.285-42.845 0-74.979-37.49-138.176t-99.615-99.615q-62.126 36.418-99.615 99.615t-37.49 138.176q0 12.854 4.285 42.845-74.979-59.983-173.523-59.983-72.837 0-137.105 36.418 0 79.264 51.414 155.314t124.251 99.615l-38.561 19.28q-55.699 32.134-96.402 100.686t-40.703 134.962q68.552 38.561 137.105 38.561 96.402 0 173.523-62.126-4.285 29.992-4.285 42.845 0 74.979 37.49 138.176t99.615 99.615q62.126-36.418 99.615-99.615t37.49-138.176q0-12.854-4.285-42.845z" />
<glyph unicode="&#xe90e;" glyph-name="panorama" d="M348.596 402.702l-161.226-209.157h649.26l-209.157 278.877-161.226-209.157zM1024 147.791q0-37.038-28.323-65.362t-65.362-28.323h-836.63q-37.038 0-65.362 28.323t-28.323 65.362v557.753q0 37.038 28.323 65.362t65.362 28.323h836.63q37.038 0 65.362-28.323t28.323-65.362v-557.753z" />
<glyph unicode="&#xe90f;" glyph-name="location_history" d="M512 104.564q84.131 0 173.070 48.075t134.61 115.38q-2.404 67.305-108.169 112.977t-199.512 45.671-199.512-44.469-108.169-114.178q45.671-67.305 134.61-115.38t173.070-48.075zM512 837.709q-62.498 0-108.169-45.671t-45.671-108.169 45.671-108.169 108.169-45.671 108.169 45.671 45.671 108.169-45.671 108.169-108.169 45.671zM512 938.667q192.3 0 326.911-135.812t134.61-325.709q0-158.648-97.352-281.239t-246.385-163.455l-117.784-117.784-117.784 117.784q-149.033 40.864-246.385 163.455t-97.352 281.239q0 189.897 134.61 325.709t326.911 135.812z" />
<glyph unicode="&#xe910;" glyph-name="cancel" d="M769.202 241.578l-185.089 185.089 185.089 185.089-72.113 72.113-185.089-185.089-185.089 185.089-72.113-72.113 185.089-185.089-185.089-185.089 72.113-72.113 185.089 185.089 185.089-185.089zM512 938.667q211.531 0 361.765-150.235t150.235-361.765-150.235-361.765-361.765-150.235-361.765 150.235-150.235 361.765 150.235 361.765 361.765 150.235z" />
<glyph unicode="&#xe911;" glyph-name="refresh" d="M872.795 788.959l149.708 149.708v-449.123h-449.123l206.596 206.596q-113.778 113.778-269.474 113.778-158.69 0-270.971-112.281t-112.281-270.971 112.281-270.971 270.971-112.281q110.784 0 217.076 74.854t145.216 179.649h131.743q-41.918-167.672-179.649-275.462t-314.386-107.789q-209.591 0-359.298 149.708t-149.708 362.292 149.708 362.292 359.298 149.708q89.825 0 196.117-43.415t166.175-106.292z" />
<glyph unicode="&#xe912;" glyph-name="person" d="M512 297.918q161.684 0 336.842-70.363t175.158-184.14v-128.749h-1024v128.749q0 113.778 175.158 184.14t336.842 70.363zM512 426.667q-104.795 0-179.649 74.854t-74.854 179.649 74.854 181.146 179.649 76.351 179.649-76.351 74.854-181.146-74.854-179.649-179.649-74.854z" />
<glyph unicode="&#xe913;" glyph-name="account_circle" d="M512 56.489q81.728 0 171.869 48.075t135.812 117.784q-2.404 67.305-108.169 112.977t-199.512 45.671-199.512-44.469-108.169-114.178q45.671-69.709 135.812-117.784t171.869-48.075zM512 784.827q-62.498 0-108.169-45.671t-45.671-108.169 45.671-108.169 108.169-45.671 108.169 45.671 45.671 108.169-45.671 108.169-108.169 45.671zM512 938.667q211.531 0 361.765-150.235t150.235-361.765-150.235-361.765-361.765-150.235-361.765 150.235-150.235 361.765 150.235 361.765 361.765 150.235z" />
<glyph unicode="&#xe914;" glyph-name="autorenew" d="M825.735 624.93q58.826-89.328 58.826-198.264 0-152.511-110.026-262.536t-262.536-110.026v-139.438l-185.191 187.37 185.191 185.191v-139.438q115.472 0 197.174 81.702t81.702 197.174q0 65.362-32.681 130.723zM511.999 705.543q-115.472 0-197.174-81.702t-81.702-197.174q0-69.719 32.681-130.723l-67.54-67.54q-58.826 89.328-58.826 198.264 0 152.511 110.026 262.536t262.536 110.026v139.438l185.191-187.37-185.191-185.191v139.438z" />
<glyph unicode="&#xe915;" glyph-name="cached" d="M233.123 426.667h139.438l-185.191-185.191-187.37 185.191h139.438q0 152.511 110.026 262.536t262.536 110.026q108.936 0 198.264-58.826l-67.54-67.54q-58.826 32.681-130.723 32.681-115.472 0-197.174-81.702t-81.702-197.174zM836.63 611.858l187.37-185.191h-139.438q0-152.511-110.026-262.536t-262.536-110.026q-108.936 0-198.264 58.826l67.54 67.54q61.004-32.681 130.723-32.681 115.472 0 197.174 81.702t81.702 197.174h-139.438z" />
<glyph unicode="&#xe916;" glyph-name="settings" d="M512 246.385q74.516 0 127.399 52.883t52.883 127.399-52.883 127.399-127.399 52.883-127.399-52.883-52.883-127.399 52.883-127.399 127.399-52.883zM894.197 376.188l108.169-84.131q16.826-12.019 4.808-33.653l-103.362-177.878q-9.615-16.826-31.249-9.615l-127.399 50.479q-50.479-36.056-86.535-50.479l-19.23-134.61q-4.808-21.634-24.038-21.634h-206.723q-19.23 0-24.038 21.634l-19.23 134.61q-45.671 19.23-86.535 50.479l-127.399-50.479q-21.634-7.211-31.249 9.615l-103.362 177.878q-12.019 21.634 4.808 33.653l108.169 84.131q-2.404 16.826-2.404 50.479t2.404 50.479l-108.169 84.131q-16.826 12.019-4.808 33.653l103.362 177.878q9.615 16.826 31.249 9.615l127.399-50.479q50.479 36.056 86.535 50.479l19.23 134.61q4.808 21.634 24.038 21.634h206.723q19.23 0 24.038-21.634l19.23-134.61q45.671-19.23 86.535-50.479l127.399 50.479q21.634 7.211 31.249-9.615l103.362-177.878q12.019-21.634-4.808-33.653l-108.169-84.131q2.404-16.826 2.404-50.479t-2.404-50.479z" />
<glyph unicode="&#xe917;" glyph-name="emoji_emotions" d="M692.282 477.146q31.249 0 54.085 22.836t22.836 54.085-22.836 54.085-54.085 22.836-54.085-22.836-22.836-54.085 22.836-54.085 54.085-22.836zM512 118.986q86.535 0 156.244 56.488t100.958 147.831h-514.404q31.249-91.343 100.958-147.831t156.244-56.488zM331.718 630.986q-31.249 0-54.085-22.836t-22.836-54.085 22.836-54.085 54.085-22.836 54.085 22.836 22.836 54.085-22.836 54.085-54.085 22.836zM512 938.667q211.531 0 361.765-150.235t150.235-361.765-150.235-361.765-361.765-150.235-361.765 150.235-150.235 361.765 150.235 361.765 361.765 150.235z" />
<glyph unicode="&#xe918;" glyph-name="replay_circle_filled" d="M819.681 426.667q0 127.399-90.141 217.54t-217.54 90.141v153.84l-204.319-204.319 204.319-206.723v153.84q84.131 0 144.225-60.094t60.094-144.225-60.094-144.225-144.225-60.094-144.225 60.094-60.094 144.225h-103.362q0-127.399 90.141-217.54t217.54-90.141 217.54 90.141 90.141 217.54zM512 938.667q211.531 0 361.765-150.235t150.235-361.765-150.235-361.765-361.765-150.235-361.765 150.235-150.235 361.765 150.235 361.765 361.765 150.235z" />
</font>
</defs>
</svg>
